# xmcd CD database file
#
# Track frame offsets:
#	182
#	25565
#	39712
#	56772
#	71757
#	88865
#	111835
#	132030
#	147842
#	170042
#	190152
#	208390
#	225832
#	248722
#	268167
#
# Disc length: 3900 seconds
#
# Revision: 0
# Processed by: cddbd v1.5.2PL0 Copyright (c) Steve Scherf et al.
# Submitted via: CDex 1.70beta1
#
DISCID=da0f3a0f
DTITLE=Salsa - La Noche Cubana Vol. 3
DYEAR=1995
DGENRE=Salsa
TTITLE0=David Cedeno - De Parte De Un Boricua Para Los Colombianos
TTITLE1=Joe Arroyo y La Verdad - Bam Bam
TTITLE2=Alfredo De La Fé - La Mocura
TTITLE3=The Latin Brothers - La Negra Quiere
TTITLE4=Fruko y SusTesos - No Tiene Billete
TTITLE5=Galileo y Su Banda - Juguete De Nadie
TTITLE6=Antonio Cartagena - Mi Duena
TTITLE7=Alfredo De La Fé - Hay Que Saber Vivir
TTITLE8=Fruko y SusTesos - El Praso (Remix)
TTITLE9=Alfredo De La Fé y Su Orquesta - Ya No Te Estoy Creyendo
TTITLE10=Nico Saquido - Adios Company Gato
TTITLE11=Los Tupamaros - De Todas Formas
TTITLE12=Galileo y Su Banda - Si Supieras
TTITLE13=Alfredo De La Fé - Barranquilla Es
TTITLE14=Alfredo De La Fé - Salsa Computerizada
EXTD=YEAR: 1995
EXTT0=
EXTT1=
EXTT2=
EXTT3=
EXTT4=
EXTT5=
EXTT6=
EXTT7=
EXTT8=
EXTT9=
EXTT10=
EXTT11=
EXTT12=
EXTT13=
EXTT14=
PLAYORDER=
